<svg xmlns="http://www.w3.org/2000/svg" xmlns:xlink="http://www.w3.org/1999/xlink" width="120" height="40" viewBox="0 0 120 40">
  <defs>
    <clipPath id="clip-path">
      <rect id="Rectangle_34" data-name="Rectangle 34" width="120" height="40" transform="translate(73 34)" fill="#fff" stroke="#707070" stroke-width="1"/>
    </clipPath>
  </defs>
  <g id="Mask_Group_2" data-name="Mask Group 2" transform="translate(-73 -34)" clip-path="url(#clip-path)">
    <g id="BeatXP_Logo" data-name="BeatXP Logo" transform="translate(-324.166 -135.19)">
      <path id="Path_22" data-name="Path 22" d="M336.142,48.359l-.924,4.948a5.556,5.556,0,0,1,1.575-.71,7.753,7.753,0,0,1,2.134-.262q7.2,0,7.195,7.447a21.23,21.23,0,0,1-.333,3.556q-.927,5.13-3.5,7.505t-7.364,2.377a10.824,10.824,0,0,1-6.492-1.666q-2.263-1.667-2.263-5.558a19.5,19.5,0,0,1,.334-3.407L329.2,48.359Zm-.851,19.433a4.038,4.038,0,0,0,1.318-.186,2.041,2.041,0,0,0,.927-.674,4.537,4.537,0,0,0,.685-1.347,20.611,20.611,0,0,0,.593-2.21,17.365,17.365,0,0,0,.445-3.256c0-1-.2-1.641-.592-1.928a2.883,2.883,0,0,0-1.707-.431,3.9,3.9,0,0,0-1.3.188,2.044,2.044,0,0,0-.907.674,4.2,4.2,0,0,0-.668,1.348q-.28.86-.576,2.207a17.36,17.36,0,0,0-.445,3.256,2.426,2.426,0,0,0,.557,1.89,2.537,2.537,0,0,0,1.668.468" transform="translate(71 128.684)" fill="#fff"/>
      <path id="Path_23" data-name="Path 23" d="M349.773,64.492v.262a1.962,1.962,0,0,0,.705,1.685,4.244,4.244,0,0,0,2.449.524q1.966,0,3.672-.019t3.339-.131l-1.967,5.09c-.372.025-.8.051-1.3.074s-1.032.044-1.613.057l-1.8.038q-.927.018-1.817.018a12.313,12.313,0,0,1-3.951-.541,6.42,6.42,0,0,1-2.522-1.5,5.327,5.327,0,0,1-1.335-2.245,9.576,9.576,0,0,1-.389-2.789q0-.749.074-1.516c.048-.511.123-1.03.223-1.554a17.106,17.106,0,0,1,1.632-5.165,9.5,9.5,0,0,1,2.56-3.107,8.534,8.534,0,0,1,3.3-1.534,17.05,17.05,0,0,1,3.783-.412,10.537,10.537,0,0,1,5.6,1.309,4.637,4.637,0,0,1,2.114,4.267,7.17,7.17,0,0,1-.073,1.01c-.051.352-.111.713-.186,1.087a5.383,5.383,0,0,1-2.875,4,14.491,14.491,0,0,1-6.212,1.087Zm4.49-7.935a5.042,5.042,0,0,0-1.391.168,2.308,2.308,0,0,0-1,.6,3.816,3.816,0,0,0-.741,1.123,10.347,10.347,0,0,0-.574,1.7h2.706a5.347,5.347,0,0,0,2.115-.3,1.507,1.507,0,0,0,.816-1.087,2.907,2.907,0,0,0,.111-.823,1.254,1.254,0,0,0-.445-1.01,2.538,2.538,0,0,0-1.595-.374" transform="translate(74.069 129.289)" fill="#fff"/>
      <path id="Path_24" data-name="Path 24" d="M366.251,72.272A10.34,10.34,0,0,1,360.539,71a4.445,4.445,0,0,1-1.892-3.967,9.207,9.207,0,0,1,.26-2.134,6.634,6.634,0,0,1,2.394-4.005q1.835-1.421,5.657-1.423a12.829,12.829,0,0,1,2.744.262,4.1,4.1,0,0,1,1.892.9l.149-.674a3.721,3.721,0,0,0,.111-.9,1.612,1.612,0,0,0-.723-1.4A4.127,4.127,0,0,0,369,57.225h-3.337q-1,0-2.1.019t-2.134.055l1.854-5.053q1.3-.035,2.783-.055t3.6-.019a11.651,11.651,0,0,1,6.362,1.442q2.207,1.44,2.207,4.81a13.663,13.663,0,0,1-.3,2.619l-1.261,6.7a8.855,8.855,0,0,1-.576,1.984,3.434,3.434,0,0,1-.908,1.254,3.813,3.813,0,0,1-1.334.71,9.638,9.638,0,0,1-1.892.356q-.966.113-2.5.168t-3.209.057m1.781-8.758a3.94,3.94,0,0,0-1.966.394,1.946,1.946,0,0,0-.853,1.439,4.619,4.619,0,0,0-.111.973,1.134,1.134,0,0,0,.612,1.124,4.945,4.945,0,0,0,2.021.3q.741,0,1.335-.057t1.15-.13l.37-1.836c.024-.124.044-.23.055-.317a2.073,2.073,0,0,0,.019-.281,1.284,1.284,0,0,0-.687-1.273,4.529,4.529,0,0,0-1.947-.336" transform="translate(76.837 129.369)" fill="#fff"/>
      <path id="Path_25" data-name="Path 25" d="M383.972,58.378l-1.187,6.212a5.4,5.4,0,0,0-.111,1.048,1.64,1.64,0,0,0,.481,1.292,2.507,2.507,0,0,0,1.668.431h.947c.357,0,.717,0,1.076-.019s.693-.024,1-.038.55-.018.723-.018l-2.078,5.464q-.223,0-.705.019c-.321.012-.685.019-1.094.019h-2.5q-3.374,0-4.97-1.535a5.644,5.644,0,0,1-1.595-4.267,9.408,9.408,0,0,1,.074-1.16c.048-.4.112-.81.185-1.236L378.965,48.5l7.085-.86-1.039,5.427h5.824l-2.04,5.316Z" transform="translate(79.888 128.554)" fill="#fff"/>
      <path id="Path_26" data-name="Path 26" d="M417.092,65.927,415.8,72.668h-7.663l4.714-24.363h8.85q4.78,0,7.258,1.694a6.066,6.066,0,0,1,2.475,5.389,14.079,14.079,0,0,1-.2,2.259,10.551,10.551,0,0,1-1.442,4.055,8.2,8.2,0,0,1-2.543,2.533,10.116,10.116,0,0,1-3.46,1.317,22.064,22.064,0,0,1-4.188.376Zm1.186-6.091h1.832a8.069,8.069,0,0,0,1.525-.12,2.741,2.741,0,0,0,1.018-.393,1.813,1.813,0,0,0,.628-.736,5,5,0,0,0,.355-1.145,5.594,5.594,0,0,0,.1-1.028,1.731,1.731,0,0,0-.644-1.557,3.605,3.605,0,0,0-1.965-.427h-1.8Z" transform="translate(85.73 128.674)" fill="#fff"/>
      <path id="Path_27" data-name="Path 27" d="M410.975,72.68h-8.733l-2.567-6.8-5.467,6.8h-8.6l11.1-12.966-4.9-11.4h8.333l2.033,5.834,2.434-3.367,2,5.733.5,1.433-1.9,2.333Z" transform="translate(81.682 128.676)" fill="#fff"/>
      <path id="Path_28" data-name="Path 28" d="M411.874,48.313l-6.067,7.4-2.566-7.4Z" transform="translate(84.85 128.676)" fill="#17bdc3"/>
    </g>
  </g>
</svg>
